<?xml version="1.0" standalone="no"?><!DOCTYPE svg PUBLIC "-//W3C//DTD SVG 1.1//EN" "http://www.w3.org/Graphics/SVG/1.1/DTD/svg11.dtd"><svg t="1540710014303" class="icon" style="" viewBox="0 0 1024 1024" version="1.1" xmlns="http://www.w3.org/2000/svg" p-id="3735" xmlns:xlink="http://www.w3.org/1999/xlink" width="200" height="200"><defs><style type="text/css"></style></defs><path d="M389.519458 582.940702c-30.085202 0-54.416354 24.352641-54.416354 54.359049 0 30.086226 24.330128 54.441936 54.416354 54.441936 23.034623 0 42.512233-14.437827 50.367131-34.632775l-39.510876-19.810185 39.510876-19.699668C432.032714 597.292572 412.55408 582.940702 389.519458 582.940702L389.519458 582.940702z" p-id="3736"></path><path d="M643.209344 691.964768c22.978341 0 42.515303-14.408151 50.364061-34.685987l-39.565111-19.72832 39.565111-19.759019c-7.849782-20.247136-27.38572-34.633798-50.364061-34.633798-30.088272 0-54.4184 24.357757-54.4184 54.392818C588.790944 667.608034 613.118002 691.964768 643.209344 691.964768L643.209344 691.964768z" p-id="3737"></path><path d="M889.345184 564.1528c0.206708-8.553817 0.231267-17.248849 0.057305-25.971511 2.326998-117.957529-32.779567-217.391169-101.535511-287.574624-32.796964-33.466206-72.677253-59.157331-118.382201-76.653821C662.388149 110.236684 593.192184 60.069097 509.139859 60.069097c-84.052325 0-153.24829 50.166563-160.344918 113.883747-45.702901 17.496489-85.581144 43.188638-118.372991 76.654844-68.77641 70.184479-103.890138 169.424714-101.55393 287.025109-0.202615 11.111059-0.134053 21.544689 0.209778 31.745005-17.820877 17.934464-31.781844 45.029566-21.579481 83.044368 7.580652 28.248368 28.479635 49.41341 54.125735 58.676377 13.030781 8.040117 28.339442 12.717649 44.717458 12.824073 32.692586 142.950759 151.384849 240.008282 306.381969 240.008282 154.712641 0 273.429463-97.29493 305.941947-240.334717 1.001817 0.218988 2.038426 0.341784 3.105734 0.341784 20.419052 0 39.196721-7.128351 54.010101-19.004843 19.36914-10.986215 34.513048-29.371958 40.72247-52.509934C927.750889 610.511641 909.631206 581.874417 889.345184 564.1528zM509.139859 89.10848c62.61099 0 115.169019 31.789007 128.593773 74.27975-39.074947-11.147898-81.779561-16.864086-127.487579-16.864086l-2.221598 0c-45.704948 0-88.406492 5.716188-127.47837 16.863063C393.971863 120.897488 446.529893 89.10848 509.139859 89.10848zM513.280156 934.900729c-0.236384-0.00921-0.87902-0.00921-1.115404-0.00921-168.273495 0-285.803281-120.327506-285.803281-292.883537l-0.312108-16.419971c-0.210801-7.0383 0.881067-26.802436 2.053776-45.75816C319.838446 547.379789 357.927949 454.133058 359.592868 449.940572c2.958378-7.439436-0.662079-15.862269-8.101515-18.84009-7.468089-2.987031-15.880689 0.651846-18.868743 8.082072-0.370437 0.911766-35.933397 87.300298-117.450992 114.372887-2.347464-1.630127-18.520819-18.191314-40.285518-12.440333 0.01535-1.166569 0.028653-2.324952 0.050142-3.518127-2.145873-105.457844 28.41619-193.551204 88.386026-254.750031 57.861826-59.043744 142.475945-90.257653 244.682745-90.257653l1.068332 0.01842 0 0 0.26913 17.024745 1.172709-0.01842-0.26913-17.025769c102.234429 0 186.857758 31.213909 244.710374 90.257653 59.969836 61.198827 90.531899 149.292188 88.376817 255.326153 0.016373 0.825808 0.026606 1.63422 0.039909 2.451842-30.691 0-35.956933 27.236318-35.678594 28.359908-0.124843 0.554632-0.2415 1.113357-0.340761 1.678222-0.750083 4.234441-1.599428 15.413038-2.445702 29.446659-0.518816 0.421602-0.998747 0.887206-1.454118 1.379417-44.283576-43.678802-102.051257-55.92266-158.13253-67.805292-29.351492-6.219655-59.69559-12.648065-88.301092-23.491017C455.43675 471.654107 399.380036 379.647623 398.822334 378.721531c-4.111644-6.872524-13.016455-9.112542-19.908422-5.010107-6.872524 4.111644-9.121751 13.016455-5.019317 19.898189 2.457981 4.121877 61.529355 101.516068 172.820044 143.733589 30.703279 11.646248 62.162782 18.310018 92.582605 24.747637 61.028958 12.93152 118.673843 25.14468 157.950382 76.125795 0.413416 0.536212 0.86367 1.02433 1.332345 1.485841-0.056282 2.573615-0.056282 2.578732-0.056282 2.578732 0 19.005866-1.434675 37.377282-4.204765 55.027268C743.823879 777.982864 660.052964 830.845839 556.273343 842.23626c-7.736195-10.207479-23.49204-17.245779-41.794895-17.245779-25.956162 0-47.012733 14.047947-47.012733 31.337729 0 17.324574 21.056572 31.342846 47.012733 31.342846 23.263843 0 42.430368-11.316743 46.157249-26.123984 33.479509-3.846608 65.392336-11.846816 95.310739-23.927969 42.738383-17.260106 80.397075-42.401716 111.929232-74.731028 5.045923-5.173836 9.892301-10.525728 14.576997-16.016789C744.873792 861.32092 644.420939 934.892543 513.280156 934.900729z" p-id="3738"></path></svg>