<?xml version="1.0" standalone="no"?><!DOCTYPE svg PUBLIC "-//W3C//DTD SVG 1.1//EN" "http://www.w3.org/Graphics/SVG/1.1/DTD/svg11.dtd"><svg t="1540283465070" class="icon" style="" viewBox="0 0 1024 1024" version="1.1" xmlns="http://www.w3.org/2000/svg" p-id="14620" xmlns:xlink="http://www.w3.org/1999/xlink" width="200" height="200"><defs><style type="text/css"></style></defs><path d="M802 133.081C802 113.706 786.294 98 766.919 98H281.081C261.706 98 246 113.706 246 133.081V890.92c0 19.374 15.706 35.08 35.081 35.08H766.92c19.374 0 35.08-15.706 35.08-35.081V133.081zM449.789 132h147.339c4.844 0 8.77 4.156 8.77 9s-3.927 9-8.77 9H449.789c-4.844 0-8.77-4.156-8.77-9s3.927-9 8.77-9z m73.67 777.33c-29.062 0-52.621-23.559-52.621-52.621s23.559-52.621 52.621-52.621 52.621 23.559 52.621 52.621-23.559 52.621-52.621 52.621zM750 749.919C750 769.294 734.294 785 714.919 785H334.081C314.706 785 299 769.294 299 749.919V220.081C299 200.706 314.706 185 334.081 185H714.92c19.374 0 35.08 15.706 35.08 35.081v529.838z" fill="#666666" p-id="14621"></path></svg>