<?xml version="1.0" standalone="no"?><!DOCTYPE svg PUBLIC "-//W3C//DTD SVG 1.1//EN" "http://www.w3.org/Graphics/SVG/1.1/DTD/svg11.dtd"><svg t="1540267813409" class="icon" style="" viewBox="0 0 1024 1024" version="1.1" xmlns="http://www.w3.org/2000/svg" p-id="8856" xmlns:xlink="http://www.w3.org/1999/xlink" width="200" height="200"><defs><style type="text/css"></style></defs><path d="M762 512.1c13.9 0 25.7 4.8 35.4 14.6 9.7 9.7 14.6 21.6 14.6 35.4v300c0 13.9-4.8 25.7-14.6 35.4-9.7 9.7-21.6 14.6-35.4 14.6H262c-13.9 0-25.7-4.8-35.4-14.6-9.7-9.7-14.6-21.6-14.6-35.4V562c0-13.9 4.8-25.7 14.6-35.4 9.7-9.7 21.6-14.6 35.4-14.6h16.7V345.3c0-64.2 22.8-119.2 68.5-164.9S447.7 112 512 112c64.2 0 119.2 22.8 164.9 68.5s68.5 100.6 68.5 164.9c0 9-3.3 16.9-9.9 23.4s-14.5 9.9-23.4 9.9h-33.3c-9 0-16.9-3.3-23.4-9.9-6.6-6.6-9.9-14.4-9.9-23.4 0-36.8-13-68.2-39.1-94.3s-57.5-39-94.3-39-68.2 13-94.3 39.1-39.1 57.5-39.1 94.3v166.6H762z" p-id="8857"></path></svg>